 <svg xmlns="http://www.w3.org/2000/svg" xmlns:xlink="http://www.w3.org/1999/xlink" viewBox="0 0 24 18">
  <defs>
    <linearGradient id="PSgrad_0" x1="0%" x2="0%" y1="100%" y2="0%">
      <stop offset="0%" stop-color="rgb(242,101,34)" stop-opacity="1" />
      <stop offset="18%" stop-color="rgb(246,55,90)" stop-opacity="1" />
      <stop offset="99%" stop-color="rgb(250,8,145)" stop-opacity="1" />
    </linearGradient>

  </defs>
  <path fill-rule="evenodd"  fill="rgb(255, 78, 46)"
    d="M-0.000,18.000 L-0.000,15.437 L24.000,15.437 L24.000,18.000 L-0.000,18.000 ZM-0.000,7.719 L24.000,7.719 L24.000,10.281 L-0.000,10.281 L-0.000,7.719 ZM-0.000,-0.000 L24.000,-0.000 L24.000,2.562 L-0.000,2.562 L-0.000,-0.000 Z"/>
  <path fill="url(#PSgrad_0)"
    d="M-0.000,18.000 L-0.000,15.437 L24.000,15.437 L24.000,18.000 L-0.000,18.000 ZM-0.000,7.719 L24.000,7.719 L24.000,10.281 L-0.000,10.281 L-0.000,7.719 ZM-0.000,-0.000 L24.000,-0.000 L24.000,2.562 L-0.000,2.562 L-0.000,-0.000 Z"/>
</svg>